<svg width="46" height="20" viewBox="0 0 46 20" fill="none" xmlns="http://www.w3.org/2000/svg">
<g clip-path="url(#clip0)">
<rect width="46" height="20" fill="white"/>
<path d="M44.6875 3.9375C44.3768 4.24816 43.8732 4.24816 43.5625 3.9375L42.0625 2.4375C41.7518 2.12684 41.7518 1.62316 42.0625 1.3125V1.3125C42.3732 1.00184 42.8768 1.00184 43.1875 1.3125L44.6875 2.8125C44.9982 3.12316 44.9982 3.62684 44.6875 3.9375V3.9375Z" fill="black" stroke="white" stroke-width="0.5" stroke-linecap="round" stroke-linejoin="round"/>
<path d="M41.875 2.25L39.0625 2.8125L37.75 8.25L43.1875 6.9375L43.75 4.125L41.875 2.25Z" fill="black" stroke="white" stroke-width="0.1" stroke-linecap="round" stroke-linejoin="round"/>
<path d="M38 8L40.5 5.5" stroke="white" stroke-width="0.4" stroke-linecap="round" stroke-linejoin="round"/>
<path d="M41.875 4.875C41.875 4.46079 41.5392 4.125 41.125 4.125C40.7108 4.125 40.375 4.46079 40.375 4.875C40.375 5.28921 40.7108 5.625 41.125 5.625C41.5392 5.625 41.875 5.28921 41.875 4.875Z" stroke="white" stroke-width="0.5" stroke-linecap="round" stroke-linejoin="round"/>
<path d="M13.734 11.878C13.8553 11.878 13.9487 11.934 14.014 12.046C14.0887 12.158 14.126 12.312 14.126 12.508C14.126 12.872 14.0373 13.1613 13.86 13.376C13.412 13.9173 12.9593 14.3373 12.502 14.636C12.0447 14.9253 11.5033 15.07 10.878 15.07C10.2713 15.07 9.75333 14.9067 9.324 14.58C8.904 14.2533 8.50267 13.6933 8.12 12.9C7.812 12.2653 7.56933 11.7987 7.392 11.5C7.21467 11.192 7.03733 10.9727 6.86 10.842C6.692 10.7113 6.482 10.632 6.23 10.604C6.19267 10.8 6.08533 11.416 5.908 12.452C5.83333 12.9187 5.78667 13.2033 5.768 13.306C5.67467 13.8753 5.488 14.314 5.208 14.622C4.928 14.9207 4.50333 15.07 3.934 15.07C3.30867 15.07 2.75333 14.888 2.268 14.524C1.792 14.1507 1.42333 13.6373 1.162 12.984C0.900667 12.3213 0.77 11.57 0.77 10.73C0.77 9.162 1.04067 7.80867 1.582 6.67C2.13267 5.53133 2.898 4.66333 3.878 4.066C4.86733 3.45933 6.006 3.156 7.294 3.156C8.19 3.156 8.94133 3.29133 9.548 3.562C10.1547 3.83267 10.6027 4.206 10.892 4.682C11.1907 5.158 11.34 5.69467 11.34 6.292C11.34 6.81467 11.214 7.328 10.962 7.832C10.7193 8.32667 10.3507 8.76533 9.856 9.148C9.36133 9.53067 8.75933 9.81533 8.05 10.002C8.498 10.1233 8.84333 10.3193 9.086 10.59C9.32867 10.8607 9.57133 11.2573 9.814 11.78C10.0753 12.34 10.332 12.7507 10.584 13.012C10.8453 13.2733 11.144 13.404 11.48 13.404C11.7787 13.404 12.0633 13.306 12.334 13.11C12.6047 12.9047 12.9453 12.5593 13.356 12.074C13.468 11.9433 13.594 11.878 13.734 11.878ZM4.298 10.59C3.98067 10.59 3.76133 10.5153 3.64 10.366C3.528 10.2167 3.472 10.0487 3.472 9.862C3.472 9.638 3.542 9.46067 3.682 9.33C3.83133 9.19933 3.99933 9.134 4.186 9.134H4.536C4.68533 8.21933 4.82533 7.43067 4.956 6.768C5.07733 6.16133 5.46933 5.858 6.132 5.858C6.664 5.858 6.93 6.096 6.93 6.572C6.93 6.67467 6.92533 6.754 6.916 6.81L6.496 9.134C7 9.106 7.45733 8.98467 7.868 8.77C8.288 8.55533 8.61933 8.25667 8.862 7.874C9.114 7.49133 9.24 7.05733 9.24 6.572C9.24 5.984 9.03933 5.522 8.638 5.186C8.23667 4.85 7.64867 4.682 6.874 4.682C5.95933 4.682 5.15667 4.91067 4.466 5.368C3.78467 5.816 3.25267 6.488 2.87 7.384C2.48733 8.27067 2.296 9.35333 2.296 10.632C2.296 11.2293 2.35667 11.7427 2.478 12.172C2.59933 12.6013 2.74867 12.9233 2.926 13.138C3.10333 13.3527 3.27133 13.46 3.43 13.46C3.55133 13.46 3.64933 13.3993 3.724 13.278C3.808 13.1567 3.87333 12.9607 3.92 12.69L4.298 10.59ZM19.8569 10.702C19.9783 10.702 20.0716 10.7627 20.1369 10.884C20.2023 11.0053 20.2349 11.1593 20.2349 11.346C20.2349 11.794 20.0996 12.06 19.8289 12.144C19.2689 12.34 18.6529 12.452 17.9809 12.48C17.8036 13.264 17.4536 13.894 16.9309 14.37C16.4083 14.8367 15.8156 15.07 15.1529 15.07C14.5929 15.07 14.1123 14.9347 13.7109 14.664C13.3189 14.3933 13.0203 14.034 12.8149 13.586C12.6096 13.138 12.5069 12.6527 12.5069 12.13C12.5069 11.4207 12.6423 10.7907 12.9129 10.24C13.1836 9.68 13.5569 9.246 14.0329 8.938C14.5089 8.62067 15.0363 8.462 15.6149 8.462C16.3243 8.462 16.8936 8.70933 17.3229 9.204C17.7616 9.68933 18.0183 10.2913 18.0929 11.01C18.5316 10.982 19.0543 10.8887 19.6609 10.73C19.7356 10.7113 19.8009 10.702 19.8569 10.702ZM15.2649 13.586C15.5636 13.586 15.8203 13.4647 16.0349 13.222C16.2589 12.9793 16.4083 12.6293 16.4829 12.172C16.1936 11.976 15.9696 11.7193 15.8109 11.402C15.6616 11.0847 15.5869 10.7487 15.5869 10.394C15.5869 10.2447 15.6009 10.0953 15.6289 9.946H15.5589C15.1856 9.946 14.8729 10.128 14.6209 10.492C14.3783 10.8467 14.2569 11.3507 14.2569 12.004C14.2569 12.5173 14.3549 12.9093 14.5509 13.18C14.7563 13.4507 14.9943 13.586 15.2649 13.586ZM24.6193 11.08C24.8807 11.08 25.0113 11.276 25.0113 11.668C25.0113 12.4053 24.4327 12.774 23.2753 12.774C23.0513 12.774 22.7293 12.732 22.3093 12.648C22.4307 13.2267 22.5287 13.8707 22.6033 14.58C22.6873 15.28 22.7293 15.8587 22.7293 16.316C22.7293 17.324 22.566 18.094 22.2393 18.626C21.9127 19.158 21.4833 19.424 20.9513 19.424C20.2793 19.424 19.7987 18.948 19.5093 17.996C19.2293 17.044 19.0893 15.6067 19.0893 13.684C19.0893 11.892 19.2807 10.0767 19.6633 8.238C20.0553 6.39 20.5873 4.864 21.2593 3.66C21.9407 2.44667 22.6873 1.84 23.4993 1.84C23.938 1.84 24.2787 2.036 24.5213 2.428C24.7733 2.82 24.8993 3.34733 24.8993 4.01C24.8993 6.20333 23.588 8.59267 20.9653 11.178C20.872 12.0927 20.8253 12.8953 20.8253 13.586C20.8253 14.5473 20.858 15.532 20.9233 16.54C20.9887 17.5573 21.096 18.066 21.2453 18.066C21.5253 18.066 21.6653 17.5807 21.6653 16.61C21.6653 15.882 21.614 15.1773 21.5113 14.496C21.418 13.8147 21.2873 13.096 21.1193 12.34C21.11 12.2187 21.1473 12.0647 21.2313 11.878C21.3247 11.6913 21.4367 11.528 21.5673 11.388C21.698 11.248 21.8147 11.178 21.9173 11.178C22.104 11.178 22.328 11.1873 22.5893 11.206C22.6733 11.2153 22.7713 11.22 22.8833 11.22C23.2567 11.22 23.672 11.1873 24.1293 11.122C24.204 11.1127 24.2833 11.1033 24.3673 11.094C24.4513 11.0847 24.5353 11.08 24.6193 11.08ZM23.2053 3.226C23.0373 3.226 22.8273 3.51067 22.5753 4.08C22.3327 4.64933 22.09 5.40533 21.8473 6.348C21.6047 7.28133 21.3947 8.27067 21.2173 9.316C21.964 8.46667 22.538 7.58467 22.9393 6.67C23.3407 5.746 23.546 4.88267 23.5553 4.08C23.5553 3.51067 23.4387 3.226 23.2053 3.226ZM24.9492 15.07C24.5945 15.07 24.3425 14.8833 24.1932 14.51C24.0532 14.1367 23.9832 13.5393 23.9832 12.718C23.9832 11.5047 24.1559 10.352 24.5012 9.26C24.5852 8.98933 24.7205 8.79333 24.9072 8.672C25.1032 8.54133 25.3739 8.476 25.7192 8.476C25.9059 8.476 26.0365 8.49933 26.1112 8.546C26.1859 8.59267 26.2232 8.68133 26.2232 8.812C26.2232 8.96133 26.1532 9.29733 26.0132 9.82C25.9199 10.1933 25.8452 10.52 25.7892 10.8C25.7332 11.08 25.6865 11.4253 25.6492 11.836C25.9572 11.0333 26.3025 10.38 26.6852 9.876C27.0679 9.372 27.4412 9.01267 27.8052 8.798C28.1785 8.58333 28.5192 8.476 28.8272 8.476C29.4339 8.476 29.7372 8.77933 29.7372 9.386C29.7372 9.50733 29.6952 9.80133 29.6112 10.268C29.5365 10.6413 29.4992 10.8747 29.4992 10.968C29.4992 11.2947 29.6159 11.458 29.8492 11.458C30.1105 11.458 30.4465 11.2527 30.8572 10.842C30.9785 10.7207 31.1045 10.66 31.2352 10.66C31.3565 10.66 31.4499 10.716 31.5152 10.828C31.5899 10.9307 31.6272 11.0707 31.6272 11.248C31.6272 11.5933 31.5339 11.864 31.3472 12.06C31.0859 12.3307 30.7779 12.564 30.4232 12.76C30.0779 12.9467 29.7092 13.04 29.3172 13.04C28.8225 13.04 28.4445 12.914 28.1832 12.662C27.9312 12.41 27.8052 12.0693 27.8052 11.64C27.8052 11.5 27.8192 11.36 27.8472 11.22C27.8659 11.0333 27.8752 10.9073 27.8752 10.842C27.8752 10.6927 27.8239 10.618 27.7212 10.618C27.5812 10.618 27.3945 10.7767 27.1612 11.094C26.9372 11.402 26.7132 11.8127 26.4892 12.326C26.2652 12.8393 26.0832 13.3807 25.9432 13.95C25.8405 14.3887 25.7192 14.6873 25.5792 14.846C25.4485 14.9953 25.2385 15.07 24.9492 15.07ZM32.0483 15.07C31.4696 15.07 31.0076 14.86 30.6623 14.44C30.317 14.02 30.1443 13.4693 30.1443 12.788C30.1443 12.0413 30.317 11.3367 30.6623 10.674C31.0076 10.002 31.465 9.46533 32.0343 9.064C32.613 8.65333 33.2243 8.448 33.8683 8.448C34.0736 8.448 34.209 8.49 34.2743 8.574C34.349 8.64867 34.4096 8.78867 34.4563 8.994C34.6523 8.95667 34.8576 8.938 35.0723 8.938C35.5296 8.938 35.7583 9.10133 35.7583 9.428C35.7583 9.624 35.6883 10.0907 35.5483 10.828C35.3336 11.9013 35.2263 12.648 35.2263 13.068C35.2263 13.208 35.259 13.32 35.3243 13.404C35.399 13.488 35.4923 13.53 35.6043 13.53C35.7816 13.53 35.9963 13.418 36.2483 13.194C36.5003 12.9607 36.841 12.5873 37.2703 12.074C37.3823 11.9433 37.5083 11.878 37.6483 11.878C37.7696 11.878 37.863 11.934 37.9283 12.046C38.003 12.158 38.0403 12.312 38.0403 12.508C38.0403 12.8813 37.9516 13.1707 37.7743 13.376C37.3916 13.852 36.9856 14.2533 36.5563 14.58C36.127 14.9067 35.7116 15.07 35.3103 15.07C35.0023 15.07 34.7176 14.9673 34.4563 14.762C34.2043 14.5473 34.013 14.258 33.8823 13.894C33.397 14.678 32.7856 15.07 32.0483 15.07ZM32.5523 13.656C32.7576 13.656 32.9536 13.5347 33.1403 13.292C33.327 13.0493 33.4623 12.7273 33.5463 12.326L34.0643 9.75C33.6723 9.75933 33.3083 9.90867 32.9723 10.198C32.6456 10.478 32.3843 10.8513 32.1883 11.318C31.9923 11.7847 31.8943 12.2793 31.8943 12.802C31.8943 13.0913 31.9503 13.306 32.0623 13.446C32.1836 13.586 32.347 13.656 32.5523 13.656ZM37.8965 15.07C37.5418 15.07 37.2898 14.8833 37.1405 14.51C37.0005 14.1367 36.9305 13.5393 36.9305 12.718C36.9305 11.5047 37.1031 10.352 37.4485 9.26C37.5325 8.98933 37.6678 8.79333 37.8545 8.672C38.0505 8.54133 38.3211 8.476 38.6665 8.476C38.8531 8.476 38.9838 8.49933 39.0585 8.546C39.1331 8.59267 39.1705 8.68133 39.1705 8.812C39.1705 8.96133 39.1005 9.29733 38.9605 9.82C38.8671 10.1933 38.7925 10.52 38.7365 10.8C38.6805 11.08 38.6338 11.4253 38.5965 11.836C38.9045 11.0333 39.2498 10.38 39.6325 9.876C40.0151 9.372 40.3885 9.01267 40.7525 8.798C41.1258 8.58333 41.4665 8.476 41.7745 8.476C42.3811 8.476 42.6845 8.77933 42.6845 9.386C42.6845 9.75 42.5818 10.408 42.3765 11.36C42.1991 12.172 42.1105 12.7087 42.1105 12.97C42.1105 13.3433 42.2458 13.53 42.5165 13.53C42.7031 13.53 42.9225 13.418 43.1745 13.194C43.4358 12.9607 43.7811 12.5873 44.2105 12.074C44.3225 11.9433 44.4485 11.878 44.5885 11.878C44.7098 11.878 44.8031 11.934 44.8685 12.046C44.9431 12.158 44.9805 12.312 44.9805 12.508C44.9805 12.8813 44.8918 13.1707 44.7145 13.376C44.3131 13.8707 43.8791 14.2767 43.4125 14.594C42.9551 14.9113 42.4325 15.07 41.8445 15.07C41.3685 15.07 41.0091 14.9347 40.7665 14.664C40.5238 14.384 40.4025 13.9827 40.4025 13.46C40.4025 13.1987 40.4678 12.732 40.5985 12.06C40.7198 11.472 40.7805 11.066 40.7805 10.842C40.7805 10.6927 40.7291 10.618 40.6265 10.618C40.5051 10.618 40.3325 10.7767 40.1085 11.094C39.8938 11.402 39.6698 11.8127 39.4365 12.326C39.2125 12.8393 39.0305 13.3807 38.8905 13.95C38.7878 14.3887 38.6665 14.6873 38.5265 14.846C38.3958 14.9953 38.1858 15.07 37.8965 15.07ZM5.768 32.878C5.87067 33.6433 6.02 34.3993 6.216 35.146C6.25333 35.2673 6.272 35.3933 6.272 35.524C6.272 35.944 6.01533 36.154 5.502 36.154C5.21267 36.154 4.98867 36.0747 4.83 35.916C4.68067 35.7573 4.54067 35.4587 4.41 35.02L4.396 34.964C4.04133 35.4027 3.71933 35.6967 3.43 35.846C3.15 35.9953 2.82333 36.07 2.45 36.07C1.88067 36.07 1.40933 35.86 1.036 35.44C0.672 35.0107 0.49 34.4553 0.49 33.774C0.49 33.0273 0.648667 32.3367 0.966 31.702C1.28333 31.0673 1.71733 30.5493 2.268 30.148C2.81867 29.7373 3.43467 29.49 4.116 29.406C4.29333 27.642 4.62933 26.1067 5.124 24.8C5.628 23.4933 6.29533 22.84 7.126 22.84C7.52733 22.84 7.85867 23.022 8.12 23.386C8.39067 23.75 8.526 24.3007 8.526 25.038C8.526 26.0647 8.274 27.264 7.77 28.636C7.266 30.008 6.59867 31.422 5.768 32.878ZM6.972 24.212C6.70133 24.212 6.44467 24.9027 6.202 26.284C5.96867 27.6653 5.81 29.168 5.726 30.792C6.762 28.552 7.28 26.732 7.28 25.332C7.28 24.9773 7.24733 24.702 7.182 24.506C7.126 24.31 7.056 24.212 6.972 24.212ZM2.94 34.656C3.12667 34.656 3.304 34.586 3.472 34.446C3.64933 34.306 3.87333 34.0353 4.144 33.634C4.05067 32.9527 4.004 32.248 4.004 31.52C4.004 31.2307 4.00867 31.0067 4.018 30.848C3.50467 30.9973 3.08 31.338 2.744 31.87C2.408 32.402 2.24 32.99 2.24 33.634C2.24 34.3153 2.47333 34.656 2.94 34.656Z" fill="black"/>
</g>
<defs>
<clipPath id="clip0">
<rect width="46" height="20" fill="white"/>
</clipPath>
</defs>
</svg>
